<svg width="154" height="16" viewBox="0 0 154 16" version="1.1" xmlns="http://www.w3.org/2000/svg"><g id="C01-Header" stroke="none" stroke-width="1" fill="none" fill-rule="evenodd"><g id="C01-Header-(Min-L)" transform="translate(-95 -28)" fill="#112346" fill-rule="nonzero"><g id="C01-Header"><g id="Bucherer_Logo_Quer_RGB" transform="translate(95 28)"><path d="M30.392.413H25.56c-.268 0-.268.73 0 .73 1.181 0 1.7.515 1.7 2.004v7.035c0 2.062-1.23 4.134-3.81 4.134-2.582 0-3.808-2.072-3.808-4.134V3.147c0-1.49.52-2.005 1.696-2.005.268 0 .268-.729 0-.729h-6.326c-.268 0-.268.73 0 .73 1.177 0 1.696.515 1.696 2.004v7.035c0 2.907 1.695 5.61 6.034 5.61 4.2 0 5.95-2.703 5.95-5.61V3.147c0-1.49.519-2.005 1.7-2.005.264 0 .264-.729 0-.729zm14.006 11.614c-.533.724-1.673 2.55-4.697 2.55-2.805 0-5.113-2.333-5.113-6.666 0-4.542 2.259-6.791 5.068-6.791 3.319 0 4.053 2.933 4.182 3.6.054.267.801.222.779-.044L44.29 1.12S42.648 0 39.28 0c-3.695 0-7.833 2.164-7.833 7.942 0 5.911 4.393 7.894 7.833 7.894a8.397 8.397 0 005.305-1.818c.148-.52.094-2.37-.187-1.991zm2.469 2.666c-.269 0-.269.734 0 .734h6.29c.263 0 .263-.734 0-.734-1.182 0-1.7-.51-1.7-2.004V8.32a.2.2 0 01.059-.162.202.202 0 01.164-.056h6.052c.135 0 .224.071.224.196v4.395c0 1.494-.519 2.005-1.7 2.005-.268 0-.268.733 0 .733h6.29c.268 0 .268-.733 0-.733-1.181 0-1.7-.511-1.7-2.005V3.151c0-1.493.519-2.009 1.7-2.009.268 0 .268-.729 0-.729h-6.29c-.268 0-.268.73 0 .73 1.181 0 1.7.501 1.7 2.008v3.596c0 .124-.09.19-.224.19H51.68a.202.202 0 01-.164-.055.2.2 0 01-.06-.162V3.164c0-1.506.52-2.008 1.7-2.008.264 0 .264-.73 0-.73h-6.29c-.268 0-.268.73 0 .73 1.182 0 1.696.515 1.696 2.008v9.525c0 1.493-.514 2.004-1.695 2.004zm19.213 0c-.269 0-.269.734 0 .734h11.876l.376-3.707c.027-.262-.72-.311-.774-.04-.349 1.689-1.342 2.64-3.833 2.64-1.964 0-3.056-.196-3.056-1.591V8.516a.235.235 0 01.07-.192.238.238 0 01.194-.066h1.602c1.641 0 2.294.64 2.294 1.813 0 .262.779.262.779 0v-4.68c0-.267-.779-.267-.779 0 0 1.173-.653 1.813-2.294 1.813h-1.602a.238.238 0 01-.194-.065.235.235 0 01-.07-.192V1.84c0-.196.108-.289.304-.298.331-.022.86-.022 1.75-.022 3.13 0 3.744.716 4.191 2.64.063.267.8.222.778-.04L77.357.413H66.08c-.269 0-.269.73 0 .73 1.18 0 1.695.515 1.695 2.008v9.538c0 1.493-.514 2.004-1.695 2.004z" id="Path"/><path d="M9.631 7.44c1.543-.471 2.97-1.556 2.97-3.382 0-2.667-2.066-3.64-4.697-3.645H.201c-.268 0-.268.73 0 .73 1.181 0 1.696.515 1.696 2.004v9.542c0 1.493-.515 2.004-1.696 2.004-.268 0-.268.734 0 .734H8.2c2.764 0 5.113-1.423 5.113-4.085 0-2.413-1.812-3.573-3.682-3.902zM4.791 1.8c0-.347.564-.444 1.194-.444 1.969 0 3.633.724 3.633 2.813 0 2.222-1.566 2.973-3.548 2.973-.935 0-1.28-.12-1.28-.51V1.8zm1.865 12.667c-1.342 0-1.865-.267-1.865-1.418v-4.4c0-.391.215-.511 1.45-.511 1.98 0 4.025.995 4.025 3.204 0 2.21-1.628 3.125-3.61 3.125zm88.889.226c-1.248-.089-2.138-.99-2.836-2.222l-2.37-4.267c1.605-.51 3.13-1.72 3.13-3.71 0-2.667-2.16-4.063-4.92-4.067h-7.327c-.264 0-.264.729 0 .729 1.176 0 1.695.515 1.695 2.004v9.529c0 1.493-.519 2.004-1.695 2.004-.269 0-.269.73 0 .73h6.29c.268 0 .268-.73 0-.73-1.182 0-1.696-.51-1.696-2.004V8.822a.2.2 0 01.056-.163.202.202 0 01.163-.059h.447a1.23 1.23 0 011.284.836c.725 1.417 1.105 2.146 1.901 3.515.976 1.716 2.098 2.605 4.572 2.605.451.014.903-.031 1.342-.134.26-.084.228-.71-.036-.729zM87.01 7.556c-.94 0-1.194-.12-1.194-.512v-5.2c0-.35.394-.444 1.024-.444 1.933 0 3.66.929 3.66 3.062 0 2.231-1.508 3.094-3.49 3.094z" id="Shape"/><path d="M108.598 11.68c-.344 1.689-1.342 2.64-3.833 2.64-1.964 0-3.051-.196-3.051-1.591V8.516a.23.23 0 01.066-.192.234.234 0 01.193-.066h1.602c1.642 0 2.3.64 2.3 1.813 0 .262.773.262.773 0v-4.68c0-.267-.774-.267-.774 0 0 1.173-.657 1.813-2.3 1.813h-1.583a.234.234 0 01-.193-.065.23.23 0 01-.066-.192V1.84c0-.196.107-.289.304-.298.331-.022.854-.022 1.745-.022 3.131 0 3.744.716 4.196 2.64.062.267.8.222.774-.04l-.354-3.707H97.12c-.264 0-.264.73 0 .73 1.18 0 1.7.515 1.7 2.008v9.538c0 1.493-.52 2.004-1.7 2.004-.264 0-.264.734 0 .734h11.877l.38-3.707c.027-.262-.725-.311-.779-.04z" id="Path"/><path d="M126.595 14.693c-1.249-.089-2.139-.99-2.832-2.222l-2.375-4.267c1.61-.51 3.13-1.72 3.13-3.71 0-2.667-2.164-4.063-4.92-4.067h-7.318c-.268 0-.268.729 0 .729 1.18 0 1.695.515 1.695 2.004v9.529c0 1.493-.514 2.004-1.695 2.004-.268 0-.268.73 0 .73h6.263c.263 0 .263-.73 0-.73-1.177 0-1.696-.51-1.696-2.004V8.822a.2.2 0 01.058-.165.202.202 0 01.166-.057h.447a1.226 1.226 0 011.28.836c.724 1.417 1.104 2.146 1.905 3.515.97 1.716 2.103 2.605 4.576 2.605.452.013.903-.032 1.342-.134.26-.084.233-.71-.026-.729zm-8.544-7.137c-.935 0-1.195-.12-1.195-.512v-5.2c0-.35.398-.444 1.025-.444 1.936 0 3.659.929 3.659 3.062 0 2.231-1.508 3.094-3.49 3.094z" id="Shape"/><path id="Path" d="M130.58 1.062v.778l1.378-.582v6.644h.752V.413h-.6z"/><path d="M139.67 4.444a2.18 2.18 0 00-.497-.395 3.177 3.177 0 00-.38-.178c.113-.042.22-.096.322-.16a1.54 1.54 0 00.394-.351 2.03 2.03 0 00.286-.502c.074-.204.11-.42.108-.636a1.768 1.768 0 00-.188-.809 1.918 1.918 0 00-.501-.613 2.278 2.278 0 00-.712-.356 2.7 2.7 0 00-1.69 0c-.259.085-.5.214-.712.383a1.918 1.918 0 00-.5.613c-.123.243-.187.51-.189.782.001.221.045.44.13.645.068.18.163.35.282.502.111.139.246.257.398.351.1.065.206.118.318.16a2.16 2.16 0 00-.895.573 1.94 1.94 0 00-.514 1.36c-.005.32.067.638.21.925.138.267.33.503.563.693.241.193.514.343.806.445.616.201 1.28.201 1.896 0 .293-.1.565-.251.806-.445.235-.189.427-.425.563-.693.147-.286.22-.604.215-.925a1.962 1.962 0 00-.519-1.369zm-3.39-1.635a1.14 1.14 0 01-.126-.542 1.09 1.09 0 01.125-.525c.08-.16.194-.3.336-.409a1.7 1.7 0 011.042-.342 1.74 1.74 0 01.568.089c.173.057.335.142.479.253a1.3 1.3 0 01.335.41c.082.162.124.342.121.524.003.187-.038.373-.12.542a1.335 1.335 0 01-.332.404c-.143.113-.305.2-.478.258a1.935 1.935 0 01-1.146 0 1.596 1.596 0 01-.478-.258 1.255 1.255 0 01-.327-.395v-.01zm3.005 3.591a1.548 1.548 0 01-.389.489 1.75 1.75 0 01-.564.307 2.084 2.084 0 01-1.342 0 1.75 1.75 0 01-.568-.307 1.548 1.548 0 01-.389-.489c-.1-.195-.15-.412-.147-.631a1.432 1.432 0 01.527-1.129c.168-.134.36-.236.564-.302a2.25 2.25 0 011.369 0c.206.066.398.168.568.302a1.432 1.432 0 01.519 1.138 1.34 1.34 0 01-.148.63V6.4zm7.167-1.956a2.11 2.11 0 00-.501-.395 2.84 2.84 0 00-.376-.178c.111-.042.218-.095.317-.16.152-.093.287-.212.398-.351.12-.152.215-.322.282-.502.078-.203.116-.419.112-.636a1.768 1.768 0 00-.188-.809 1.918 1.918 0 00-.5-.613 2.278 2.278 0 00-.712-.356 2.7 2.7 0 00-1.69 0c-.26.085-.5.214-.712.383a1.86 1.86 0 00-.501.613 1.798 1.798 0 00-.08 1.413c.07.18.167.35.286.503a1.673 1.673 0 00.716.511 2.15 2.15 0 00-.895.573 1.93 1.93 0 00-.515 1.36c-.007.32.065.638.21.924.144.276.347.518.595.707.24.194.513.344.806.445.616.201 1.28.201 1.896 0a2.71 2.71 0 00.805-.445 2.18 2.18 0 00.564-.693c.143-.287.215-.604.21-.925a1.997 1.997 0 00-.143-.777 1.94 1.94 0 00-.384-.592zm-3.396-1.626a1.194 1.194 0 01-.12-.542 1.132 1.132 0 01.12-.525 1.3 1.3 0 01.336-.409c.143-.112.305-.197.478-.253.183-.061.375-.091.569-.089a1.7 1.7 0 01.563.089 1.5 1.5 0 01.479.253c.14.111.254.25.335.41.086.16.129.341.126.524a1.14 1.14 0 01-.112.542c-.08.156-.19.293-.327.404-.143.113-.305.2-.478.258a1.935 1.935 0 01-1.146 0 1.596 1.596 0 01-.478-.258 1.336 1.336 0 01-.345-.404zm3.01 3.59a1.548 1.548 0 01-.388.49 1.787 1.787 0 01-.564.306 2.097 2.097 0 01-1.342 0 1.721 1.721 0 01-.564-.306 1.548 1.548 0 01-.389-.49c-.1-.195-.15-.411-.147-.63a1.42 1.42 0 01.143-.64 1.51 1.51 0 01.38-.49c.17-.133.362-.235.568-.301a2.25 2.25 0 011.369 0c.205.066.395.168.564.302.161.134.292.3.384.489a1.432 1.432 0 01-.013 1.27zm7.167-1.964a2.203 2.203 0 00-.501-.395 2.638 2.638 0 00-.38-.178 1.51 1.51 0 00.322-.16c.152-.093.287-.212.398-.351.117-.153.212-.322.282-.502.077-.203.115-.419.112-.636a1.768 1.768 0 00-.188-.809 1.918 1.918 0 00-.501-.613 2.3 2.3 0 00-.716-.382 2.669 2.669 0 00-1.686 0 2.3 2.3 0 00-.716.382 1.905 1.905 0 00-.497.613 1.769 1.769 0 00-.09 1.44c.072.18.168.35.287.503.109.14.242.258.394.35.1.065.206.119.317.16a2.307 2.307 0 00-.38.178c-.183.106-.35.24-.492.396-.341.37-.527.857-.519 1.36-.004.32.068.637.21.924.14.268.333.504.569.694.24.193.512.344.805.444a3.038 3.038 0 001.892 0c.294-.1.568-.25.81-.444a2.18 2.18 0 00.563-.694c.143-.287.215-.604.21-.924a1.997 1.997 0 00-.143-.778 2.131 2.131 0 00-.362-.578zm-3.377-1.626a1.198 1.198 0 010-1.067 1.3 1.3 0 01.335-.409 1.5 1.5 0 01.479-.253 1.74 1.74 0 01.568-.089 1.7 1.7 0 01.564.089c.173.055.336.14.478.253a1.3 1.3 0 01.336.41c.085.16.128.341.125.524a1.14 1.14 0 01-.125.542 1.268 1.268 0 01-.331.404 1.497 1.497 0 01-.479.258c-.371.115-.77.115-1.14 0a1.497 1.497 0 01-.48-.258 1.335 1.335 0 01-.33-.404zm3.01 3.59a1.548 1.548 0 01-.389.49c-.168.136-.361.24-.568.306a2.084 2.084 0 01-1.342 0 1.721 1.721 0 01-.564-.306 1.486 1.486 0 01-.389-.49c-.1-.195-.15-.411-.147-.63a1.43 1.43 0 01.138-.64c.092-.188.223-.355.385-.49.17-.133.362-.235.568-.301a2.25 2.25 0 011.369 0c.204.066.395.168.563.302.162.134.293.3.385.489.086.202.124.42.112.64.005.218-.042.435-.139.63h.018z" id="Shape"/></g></g></g></g></svg>